<?xml version="1.0" encoding="utf-8"?>
<!-- Generator: Adobe Illustrator 24.0.2, SVG Export Plug-In . SVG Version: 6.00 Build 0)  -->
<svg version="1.1" id="Capa_1" focusable="false" xmlns="http://www.w3.org/2000/svg" xmlns:xlink="http://www.w3.org/1999/xlink"
	 x="0px" y="0px" viewBox="0 0 448 512" style="enable-background:new 0 0 448 512;" xml:space="preserve">
<style type="text/css">
	.st0{fill:#FFFFFF;}
</style>
<path class="st0" d="M346.4,369.5h-12.6V78.2c0-8.5-6.8-15.3-15.1-15.3H107.3c-8.3,0-15.1,6.9-15.1,15.3v291.2H79.6
	c-4.2,0-7.6,3.4-7.6,7.7v12.8h282v-12.8C354,372.9,350.6,369.5,346.4,369.5z M133.8,107.2c0-4.4,4.6-7.9,10.3-7.9h34.2
	c5.7,0,10.3,3.5,10.3,7.9v26.3c0,4.4-4.6,7.9-10.3,7.9h-34.2c-5.7,0-10.3-3.5-10.3-7.9V107.2z M133.8,170.4c0-4.4,4.6-7.9,10.3-7.9
	h34.2c5.7,0,10.3,3.5,10.3,7.9v26.3c0,4.4-4.6,7.9-10.3,7.9h-34.2c-5.7,0-10.3-3.5-10.3-7.9V170.4z M178.3,267.8h-34.2
	c-5.7,0-10.3-3.5-10.3-7.9v-26.3c0-4.4,4.6-7.9,10.3-7.9h34.2c5.7,0,10.3,3.5,10.3,7.9v26.3C188.5,264.3,183.9,267.8,178.3,267.8z
	 M243.3,373.2h-54.7v-55.3c0-4.4,4.6-7.9,10.3-7.9H233c5.7,0,10.3,3.5,10.3,7.9V373.2z M298,259.9c0,4.4-4.6,7.9-10.3,7.9h-34.2
	c-5.7,0-10.3-3.5-10.3-7.9v-26.3c0-4.4,4.6-7.9,10.3-7.9h34.2c5.7,0,10.3,3.5,10.3,7.9V259.9z M298,196.7c0,4.4-4.6,7.9-10.3,7.9
	h-34.2c-5.7,0-10.3-3.5-10.3-7.9v-26.3c0-4.4,4.6-7.9,10.3-7.9h34.2c5.7,0,10.3,3.5,10.3,7.9V196.7z M298,133.5
	c0,4.4-4.6,7.9-10.3,7.9h-34.2c-5.7,0-10.3-3.5-10.3-7.9v-26.3c0-4.4,4.6-7.9,10.3-7.9h34.2c5.7,0,10.3,3.5,10.3,7.9V133.5z"/>
</svg>
