<svg id="Capa_1" enable-background="new 0 0 512 512" height="512" viewBox="0 0 512 512" width="512" xmlns="http://www.w3.org/2000/svg"><path d="m445.272 206.096 66.728-66.728-46.695-46.695 36.158-36.158-51.247-51.247-237.042 237.043c-54.28-31.574-125.187-24.145-171.633 22.301-26.788 26.788-41.541 62.404-41.541 100.289s14.753 73.501 41.541 100.289c26.788 26.789 62.405 41.542 100.29 41.542s73.501-14.753 100.289-41.542c26.788-26.788 41.541-62.404 41.541-100.289 0-25.485-6.685-49.938-19.21-71.373l134.126-134.126zm-297.377 210.944c-16.073 16.072-42.131 16.072-58.203 0s-16.072-42.131 0-58.203 42.131-16.072 58.203 0 16.072 42.13 0 58.203z"/></svg>