<?xml version="1.0" encoding="utf-8"?>
<!-- Generator: Adobe Illustrator 24.0.2, SVG Export Plug-In . SVG Version: 6.00 Build 0)  -->
<svg version="1.1" id="Capa_1" focusable="false" xmlns="http://www.w3.org/2000/svg" xmlns:xlink="http://www.w3.org/1999/xlink"
	 x="0px" y="0px" viewBox="0 0 448 512" style="enable-background:new 0 0 448 512;" xml:space="preserve">
<style type="text/css">
	.st0{fill:#FFFFFF;}
</style>
<path class="st0" d="M223.9,245.9c39.1,0,70.8-31.3,70.8-70s-31.7-70-70.8-70s-70.8,31.3-70.8,70S184.8,245.9,223.9,245.9z
	 M273.4,263.4h-9.2c-12.3,5.6-25.9,8.8-40.3,8.8s-28-3.2-40.3-8.8h-9.2c-41,0-74.3,32.9-74.3,73.5v22.8c0,14.5,11.9,26.3,26.5,26.3
	h194.6c14.7,0,26.5-11.8,26.5-26.3v-22.8C347.7,296.3,314.4,263.4,273.4,263.4z"/>
</svg>
