<svg height="511pt" viewBox="0 -52 511.99733 511" width="511pt" xmlns="http://www.w3.org/2000/svg"><path d="m368.226562 312.324219v19.152343l136.273438 52.992188v-72.144531zm0 0" fill="#dad8db"/><path d="m504.5 384.46875v-72.144531h-136.273438v19.152343l12.597657 4.898438h75.582031c8.839844 0 16.03125 7.191406 16.03125 16.03125v19.59375zm0 0" fill="#c8c5c9"/><path d="m351.621094 207.339844-46.316406 12.964844 28.175781 101.039062 46.3125-12.964844zm0 0" fill="#c8c5c9"/><path d="m345.601562 241.074219 14.308594-4.003907-8.289062-29.730468-46.3125 12.964844 28.171875 101.039062 24.292969-6.800781-17.730469-63.597657c-1.1875-4.253906 1.308593-8.679687 5.558593-9.871093zm0 0" fill="#b6b1b7"/><path d="m83.96875 125.578125c-15.128906 17.671875-21.453125 42.316406-14.710938 66.402344 6.738282 24.082031 24.941407 41.863281 47.046876 49.113281zm0 0" fill="#6f6571"/><path d="m415.078125 178.421875-34.828125-127.289063-302.605469 52.773438 44.097657 156.625c2.386718 8.527344 11.234374 13.503906 19.761718 11.117188l262.457032-73.46875c8.527343-2.386719 13.503906-11.234376 11.117187-19.757813zm0 0" fill="#dad8db"/><path d="m404.5 139.757812-24.25-88.625-302.605469 52.773438 12.523438 44.484375 9.824219 4.695313 7.863281 28.089843c4.824219 17.238281 20.691406 29.28125 38.585937 29.28125 3.648438 0 7.285156-.503906 10.8125-1.488281l247.019532-69.144531zm0 0" fill="#c8c5c9"/><path d="m392.273438 328.359375c0 17.707031-14.355469 32.0625-32.0625 32.0625-17.710938 0-32.066407-14.355469-32.066407-32.0625 0-17.710937 14.355469-32.066406 32.066407-32.066406 17.707031 0 32.0625 14.355469 32.0625 32.066406zm0 0" fill="#eceaec"/><path d="m125.511719 95.558594-47.867188 8.347656 44.097657 156.625c2.386718 8.527344 11.234374 13.503906 19.761718 11.117188l30.878906-8.644532zm0 0" fill="#b6b1b7"/><path d="m99.429688 153.328125 7.863281 28.085937c4.824219 17.242188 20.695312 29.28125 38.589843 29.28125 3.648438 0 7.847657-.738281 11.371094-1.726562l-31.742187-113.410156-47.871094 8.347656 12.527344 44.484375zm0 0" fill="#9b959d"/><path d="m408.910156 96.90625-21.609375-77.195312c-2.386719-8.527344-11.234375-13.503907-19.757812-11.117188l-311.785157 87.273438c-4.3125 1.207031-4.824218 7.113281-.78125 9.046874l58.667969 28.042969c4.171875 1.996094 7.28125 5.691407 8.523438 10.144531l8.84375 31.589844c2.386719 8.527344 11.234375 13.503906 19.761719 11.117188l247.019531-69.144532c8.527343-2.386718 13.503906-11.230468 11.117187-19.757812zm0 0" fill="#eceaec"/><path d="m408.910156 96.90625-3.257812-11.644531-277.898438 77.789062 3.257813 11.640625c2.386719 8.527344 11.234375 13.503906 19.761719 11.117188l247.019531-69.144532c8.527343-2.386718 13.503906-11.230468 11.117187-19.757812zm0 0" fill="#dad8db"/><path d="m45.601562 198.601562c-1.117187-3.988281-5.253906-6.320312-9.246093-5.203124l-30.875 8.644531c-3.988281 1.117187-6.316407 5.253906-5.199219 9.246093.925781 3.3125 3.9375 5.476563 7.214844 5.476563.671875 0 1.351562-.089844 2.027344-.277344l30.875-8.644531c3.992187-1.117188 6.320312-5.253906 5.203124-9.242188zm0 0"/><path d="m14.625 167.679688 20.410156 5.589843c.664063.183594 1.328125.269531 1.984375.269531 3.296875 0 6.316407-2.1875 7.230469-5.519531 1.09375-3.992187-1.253906-8.121093-5.25-9.214843l-20.410156-5.59375c-3.996094-1.09375-8.121094 1.257812-9.21875 5.25-1.09375 3.996093 1.257812 8.121093 5.253906 9.21875zm0 0"/><path d="m49.71875 225.734375-14.539062 15.378906c-2.847657 3.007813-2.714844 7.757813.296874 10.601563 1.449219 1.371094 3.300782 2.050781 5.148438 2.050781 1.992188 0 3.976562-.785156 5.453125-2.347656l14.539063-15.375c2.847656-3.007813 2.714843-7.757813-.296876-10.601563-3.007812-2.847656-7.753906-2.714844-10.601562.292969zm0 0"/><path d="m504.5 288.792969c-4.140625 0-7.5 3.359375-7.5 7.5v8.53125h-8.535156c-4.140625 0-7.5 3.359375-7.5 7.5 0 4.144531 3.359375 7.5 7.5 7.5h8.535156v53.683593l-97.875-38.0625c.417969-2.300781.648438-4.667968.648438-7.085937 0-2.929687-.328126-5.785156-.9375-8.535156h57.566406c4.140625 0 7.5-3.355469 7.5-7.5 0-4.140625-3.359375-7.5-7.5-7.5h-64.128906c-.089844 0-.179688.011719-.269532.015625-2.15625-2.910156-4.710937-5.507813-7.566406-7.726563l-22.160156-79.476562 43.707031-12.234375c6.050781-1.691406 11.082031-5.644532 14.164063-11.121094 3.082031-5.480469 3.847656-11.828125 2.152343-17.882812l-15.597656-55.726563c2.96875-2.015625 5.464844-4.6875 7.277344-7.90625 3.082031-5.480469 3.84375-11.828125 2.148437-17.882813l-21.605468-77.191406c-3.496094-12.496094-16.511719-19.816406-29.003907-16.320312l-311.78125 87.273437c-5.003906 1.402344-8.527343 5.648438-8.976562 10.828125-.449219 5.175782 2.289062 9.96875 6.976562 12.207032l23.710938 11.335937.242187.867187c-15.34375 19.894532-20.464844 45.796876-13.65625 70.117188 6.808594 24.324219 24.636719 43.808594 48.085938 52.84375l4.398437 15.707031c2.90625 10.382813 12.378907 17.191407 22.667969 17.191407 2.09375 0 4.222656-.28125 6.335938-.875l157.992187-44.222657 22.007813 78.921875c-1.851563 4.574219-2.878907 9.5625-2.878907 14.792969 0 21.8125 17.746094 39.5625 39.5625 39.5625 14.078125 0 26.453125-7.394531 33.46875-18.5l103.320313 40.179687v10.902344c0 4.140625 3.359375 7.5 7.5 7.5 4.144531 0 7.5-3.359375 7.5-7.5v-104.210937c.003906-4.140625-3.355469-7.5-7.496094-7.5zm-134.9375-272.976563c4.53125-1.265625 9.25 1.386719 10.515625 5.917969l21.609375 77.191406c.613281 2.195313.335938 4.5-.78125 6.484375s-2.9375 3.414063-5.128906 4.03125c-.003906 0-.003906 0-.007813 0 0 .003906-.003906.003906-.007812.003906l-200.691407 56.175782c-3.988281 1.117187-6.316406 5.257812-5.199218 9.246094 1.113281 3.988281 5.253906 6.316406 9.242187 5.199218l193.476563-54.15625 15.265625 54.53125c1.269531 4.53125-1.382813 9.25-5.914063 10.519532l-224.363281 62.800781-17.5625-62.75 8.21875-2.300781c3.988281-1.117188 6.316406-5.253907 5.199219-9.246094-1.117188-3.988282-5.25-6.320313-9.242188-5.199219l-15.441406 4.324219c-4.53125 1.265625-9.25-1.386719-10.515625-5.917969l-8.84375-31.59375c-1.828125-6.535156-6.390625-11.960937-12.511719-14.886719l-52.308594-25.003906zm-293.082031 174.140625c-4.421875-15.796875-2.640625-32.421875 4.632812-46.710937l23.585938 84.234375c-13.640625-8.4375-23.796875-21.722657-28.21875-37.523438zm63 74.46875c-4.535157 1.265625-9.246094-1.386719-10.515625-5.917969l-5.441406-19.4375c-.003907-.011718-.007813-.023437-.007813-.035156l-30.070313-107.417968 16.964844 8.105468c2.21875 1.0625 3.875 3.03125 4.535156 5.398438l8.84375 31.59375c2.792969 9.96875 11.640626 16.625 21.449219 17.140625l17.898438 63.949219zm208.351562-42.746093 18.863281 67.65625c-2.109374-.351563-4.277343-.542969-6.484374-.542969-9.675782 0-18.550782 3.496093-25.429688 9.289062l-18.816406-67.480469zm12.378907 131.242187c-13.546876 0-24.566407-11.019531-24.566407-24.566406 0-13.542969 11.019531-24.5625 24.566407-24.5625 13.542968 0 24.5625 11.019531 24.5625 24.5625 0 13.546875-11.019532 24.566406-24.5625 24.566406zm0 0"/><path d="m360.289062 320.855469h-.078124c-4.144532 0-7.460938 3.359375-7.460938 7.5 0 4.144531 3.398438 7.5 7.539062 7.5 4.144532 0 7.5-3.355469 7.5-7.5 0-4.140625-3.355468-7.5-7.5-7.5zm0 0"/></svg>