<svg height="512pt" viewBox="-14 0 512 512.002" width="512pt" xmlns="http://www.w3.org/2000/svg"><path d="m79.242188 461.683594h221.417968v30.421875h-221.417968zm0 0" fill="#ccc6cc"/><path d="m255.507812 461.683594h45.152344v30.421875h-45.152344zm0 0" fill="#b6aeb7"/><path d="m79.242188 461.683594h22.183593v30.421875h-22.183593zm0 0" fill="#b6aeb7"/><path d="m424.941406 51.386719 41.433594-6.835938c9.21875-1.519531 12.542969-13.0625 5.546875-19.253906-12.507813-11.074219-28.957031-17.796875-46.980469-17.796875-29.371094 0-54.578125 17.863281-65.347656 43.316406h-324.488281c-15.246094 0-27.601563 12.359375-27.601563 27.605469 0 15.242187 12.355469 27.601563 27.601563 27.601563h324.488281c10.769531 25.453124 35.976562 43.316406 65.347656 43.316406 18.023438 0 34.472656-6.722656 46.980469-17.796875 6.996094-6.195313 3.671875-17.734375-5.546875-19.253907l-41.433594-6.835937zm0 0" fill="#ccc6cc"/><path d="m475.664062 477.425781c-.28125 15.003907-12.527343 27.078125-27.597656 27.078125h-165.398437c-5.996094 0-10.863281-4.871094-10.863281-10.867187v-33.476563c0-5.996094 4.867187-10.863281 10.863281-10.863281h164.78125c15.472656 0 28.507812 12.667969 28.214843 28.128906zm0 0" fill="#8998dd"/><path d="m475.664062 477.425781c-.28125 15.003907-12.527343 27.078125-27.597656 27.078125h-24.445312c15.070312 0 27.316406-12.074218 27.597656-27.078125.292969-15.460937-12.746094-28.128906-28.21875-28.128906h24.449219c15.472656 0 28.507812 12.667969 28.214843 28.128906zm0 0" fill="#6d80d6"/><path d="m307.058594 449.296875h34.574218v55.207031h-34.574218zm0 0" fill="#ffdbaa"/><path d="m264.75 393.003906h-46.324219c-7.480469 0-12.722656-7.386718-10.257812-14.449218l14.445312-41.34375h37.949219l14.445312 41.34375c2.464844 7.0625-2.777343 14.449218-10.257812 14.449218zm0 0" fill="#a79da8"/><path d="m264.746094 393h-3.992188l-19.492187-55.792969h19.304687l14.4375 41.347657c2.464844 7.0625-2.777344 14.445312-10.257812 14.445312zm0 0" fill="#928392"/><path d="m363.808594 321.785156h-244.441406v-130.847656c0-6 4.867187-10.867188 10.867187-10.867188h222.707031c6 0 10.863282 4.867188 10.863282 10.867188v130.847656zm0 0" fill="#d0f0de"/><path d="m363.808594 190.933594v130.847656h-21.613282v-130.847656c0-6-4.855468-10.867188-10.863281-10.867188h21.609375c5.996094 0 10.867188 4.867188 10.867188 10.867188zm0 0" fill="#b2e7cb"/><path d="m352.941406 345.972656h-222.707031c-6 0-10.867187-4.867187-10.867187-10.867187v-21.035157h244.441406v21.035157c0 6-4.867188 10.867187-10.867188 10.867187zm0 0" fill="#ccc6cc"/><path d="m363.808594 314.066406v21.042969c0 6-4.871094 10.867187-10.867188 10.867187h-21.609375c6.007813 0 10.863281-4.867187 10.863281-10.867187v-21.042969zm0 0" fill="#b6aeb7"/><path d="m79.019531 503.648438-62.011719-7.8125c-5.433593-.683594-9.503906-5.304688-9.503906-10.78125v-16.3125c0-5.476563 4.074219-10.097657 9.503906-10.78125l62.011719-7.808594c3.242188-.410156 6.109375 2.117187 6.109375 5.386718v42.71875c0 3.269532-2.867187 5.796876-6.109375 5.390626zm0 0" fill="#ccc6cc"/><path d="m467.597656 104.886719-35.15625-5.796875v-41.339844l35.15625-5.796875c7.148438-1.179687 12.832032-6.238281 14.835938-13.195313 2.007812-6.964843-.117188-14.273437-5.539063-19.074218-14.339843-12.695313-32.789062-19.683594-51.953125-19.683594-29.894531 0-56.902344 16.84375-70.144531 43.316406h-319.691406c-19.355469 0-35.105469 15.746094-35.105469 35.105469 0 19.355469 15.75 35.101563 35.105469 35.101563h122.785156c4.140625 0 7.5-3.359376 7.5-7.5 0-4.144532-3.359375-7.5-7.5-7.5h-122.785156c-11.085938 0-20.105469-9.019532-20.105469-20.101563 0-11.085937 9.019531-20.105469 20.105469-20.105469h324.488281c3.015625 0 5.734375-1.800781 6.910156-4.578125 9.953125-23.53125 32.890625-38.738281 58.4375-38.738281 15.5 0 30.417969 5.652344 42.007813 15.914062 1.535156 1.355469 1.261719 3.03125 1.074219 3.6875-.191407.65625-.847657 2.21875-2.867188 2.550782l-41.433594 6.832031c-3.621094.601563-6.28125 3.730469-6.28125 7.402344v54.066406c0 3.671875 2.660156 6.800781 6.28125 7.398437l41.433594 6.832032c2.019531.335937 2.675781 1.898437 2.867188 2.554687.1875.65625.460937 2.328125-1.074219 3.6875-11.589844 10.261719-26.507813 15.914063-42.007813 15.914063-25.546875 0-48.484375-15.207032-58.4375-38.742188-1.175781-2.773437-3.894531-4.578125-6.90625-4.578125h-166.3125c-4.144531 0-7.5 3.359375-7.5 7.5 0 4.144531 3.355469 7.5 7.5 7.5h161.511719c13.242187 26.476563 40.25 43.320313 70.148437 43.320313 19.164063 0 37.613282-6.992188 51.949219-19.683594 5.425781-4.800781 7.546875-12.109375 5.542969-19.074219-2.007812-6.957031-7.691406-12.015625-14.839844-13.195312zm0 0"/><path d="m447.449219 441.796875h-50.164063c-4.144531 0-7.5 3.355469-7.5 7.5s3.355469 7.5 7.5 7.5h50.164063c5.574219 0 11.03125 2.304687 14.972656 6.324219 3.808594 3.878906 5.847656 8.910156 5.746094 14.167968-.203125 10.867188-9.222657 19.710938-20.097657 19.710938h-98.9375v-40.203125h12.757813c4.144531 0 7.5-3.355469 7.5-7.5s-3.355469-7.5-7.5-7.5h-79.21875c-8.03125 0-14.859375 5.191406-17.347656 12.390625h-172.765625c-.339844-3.207031-1.867188-6.191406-4.304688-8.347656-2.78125-2.449219-6.492187-3.59375-10.171875-3.132813l-62.007812 7.8125c-9.164063 1.152344-16.07031275 8.988281-16.07031275 18.222657v16.3125c0 9.234374 6.90624975 17.066406 16.06640575 18.222656l62.011719 7.8125c.539063.066406 1.078125.101562 1.617188.101562 3.128906 0 6.175781-1.140625 8.550781-3.234375 2.445312-2.152343 3.96875-5.140625 4.308594-8.347656h172.765625c2.488281 7.199219 9.316406 12.394531 17.347656 12.394531h165.398437c18.992188 0 34.734376-15.445312 35.097657-34.429687.175781-9.316407-3.390625-18.183594-10.039063-24.957031-6.746094-6.878907-16.105468-10.820313-25.679687-10.820313zm-369.820313 54.113281-59.683594-7.515625c-1.675781-.210937-2.941406-1.648437-2.941406-3.339843v-16.3125c0-1.691407 1.265625-3.128907 2.941406-3.339844l59.683594-7.519532zm256.503906 1.089844h-19.574218v-40.203125h19.574218zm-241.503906-27.8125h171.679688v15.421875h-171.679688zm186.679688 24.449219v-33.476563c0-1.851562 1.507812-3.363281 3.363281-3.363281h16.886719v40.203125h-16.886719c-1.855469 0-3.363281-1.507812-3.363281-3.363281zm0 0"/><path d="m119.367188 277.199219c-4.140626 0-7.5 3.355469-7.5 7.5v50.40625c0 10.125 8.238281 18.363281 18.367187 18.363281h78.753906l-7.898437 22.613281c-1.960938 5.605469-1.074219 11.84375 2.359375 16.6875 3.441406 4.84375 9.039062 7.734375 14.976562 7.734375h46.324219c5.9375 0 11.535156-2.894531 14.976562-7.734375 3.4375-4.84375 4.320313-11.082031 2.359376-16.6875l-7.898438-22.613281h78.753906c10.128906 0 18.363282-8.238281 18.363282-18.363281v-144.167969c0-10.128906-8.234376-18.367188-18.363282-18.367188h-222.707031c-10.128906 0-18.367187 8.238282-18.367187 18.367188v58.367188c0 4.140624 3.359374 7.5 7.5 7.5 4.144531 0 7.5-3.359376 7.5-7.5v-58.367188c0-1.855469 1.511718-3.367188 3.367187-3.367188h222.707031c1.855469 0 3.363282 1.511719 3.363282 3.367188v115.628906h-229.4375v-21.867187c0-4.144531-3.355469-7.5-7.5-7.5zm148.558593 103.828125c.496094 1.429687-.058593 2.527344-.433593 3.058594s-1.230469 1.417968-2.746094 1.417968h-46.320313c-1.511719 0-2.367187-.886718-2.742187-1.417968-.375-.527344-.933594-1.628907-.433594-3.058594l9.625-27.558594h33.421875zm88.378907-59.460938v13.539063c0 1.855469-1.507813 3.363281-3.363282 3.363281h-222.707031c-1.855469 0-3.367187-1.507812-3.367187-3.363281v-13.539063zm0 0"/><path d="m234.089844 281.515625c0 4.144531 3.355468 7.5 7.5 7.5 23.046875 0 41.800781-18.75 41.800781-41.800781 0-4.144532-3.355469-7.5-7.5-7.5-4.140625 0-7.5 3.355468-7.5 7.5 0 14.777344-12.023437 26.800781-26.800781 26.800781-4.144532 0-7.5 3.359375-7.5 7.5zm0 0"/><path d="m241.589844 205.410156c-23.050782 0-41.804688 18.753906-41.804688 41.804688 0 4.144531 3.355469 7.5 7.5 7.5 4.144532 0 7.5-3.355469 7.5-7.5 0-14.777344 12.023438-26.804688 26.804688-26.804688 4.140625 0 7.5-3.355468 7.5-7.5 0-4.140625-3.359375-7.5-7.5-7.5zm0 0"/><path d="m299.007812 85.921875c4.144532 0 7.5-3.359375 7.5-7.5 0-4.144531-3.355468-7.5-7.5-7.5h-51.796874c-4.140626 0-7.5 3.355469-7.5 7.5 0 4.140625 3.359374 7.5 7.5 7.5zm0 0"/><path d="m47.824219 70.921875c-4.144531 0-7.5 3.355469-7.5 7.5 0 4.140625 3.355469 7.5 7.5 7.5h8.695312c4.140625 0 7.5-3.359375 7.5-7.5 0-4.144531-3.359375-7.5-7.5-7.5zm0 0"/></svg>