<svg id="Capa_1" enable-background="new 0 0 512 512" height="512" viewBox="0 0 512 512" width="512" xmlns="http://www.w3.org/2000/svg"><g><g><path d="m152.162 471.825v-64.899c0-2.108-1.709-3.818-3.818-3.818h-95.857c-2.108 0-3.818 1.709-3.818 3.818v64.899z" fill="#6cf5c2"/><path d="m80 471.825v-64.899c0-2.108 1.709-3.818 3.818-3.818h-31.33c-2.108 0-3.818 1.709-3.818 3.818v64.899z" fill="#00f2a6"/><g><path d="m160.861 501.094h-120.891c-2.108 0-3.818-1.709-3.818-3.818v-21.633c0-2.108 1.709-3.818 3.818-3.818h120.891c2.108 0 3.818 1.709 3.818 3.818v21.633c0 2.109-1.709 3.818-3.818 3.818z" fill="#9c9c9c"/></g><g><path d="m67.474 497.276v-21.633c0-2.108 1.709-3.818 3.818-3.818h-31.322c-2.108 0-3.818 1.709-3.818 3.818v21.633c0 2.108 1.709 3.818 3.818 3.818h31.321c-2.108 0-3.817-1.709-3.817-3.818z" fill="#838383"/></g></g><g><path d="m422.461 427.378c-1.547 0-2.802-1.254-2.802-2.802v-21.468h-56.004c-2.108 0-3.818 1.709-3.818 3.818v64.899h103.493v-44.448h-40.869z" fill="#6cf5c2"/><path d="m391 471.825v-64.899c0-2.108 1.709-3.818 3.818-3.818h-31.162c-2.108 0-3.818 1.709-3.818 3.818v64.899z" fill="#00f2a6"/><g><path d="m472.03 501.094h-120.891c-2.108 0-3.818-1.709-3.818-3.818v-21.633c0-2.108 1.709-3.818 3.818-3.818h120.891c2.108 0 3.818 1.709 3.818 3.818v21.633c-.001 2.109-1.71 3.818-3.818 3.818z" fill="#9c9c9c"/></g><g><path d="m383.474 497.276v-21.633c0-2.108 1.709-3.818 3.818-3.818h-36.153c-2.108 0-3.818 1.709-3.818 3.818v21.633c0 2.108 1.709 3.818 3.818 3.818h36.153c-2.109 0-3.818-1.709-3.818-3.818z" fill="#838383"/></g></g><g><g><path d="m213.557 308.488h84.885v35.185h-84.885z" fill="#838383"/><path d="m213.557 308.488h31.443v35.185h-31.443z" fill="#5a5a5a"/><g><path d="m84.766 300.256c0 4.547 3.686 8.232 8.232 8.232h326.003c4.547 0 8.232-3.686 8.232-8.232v-38.434h-342.467z" fill="#9c9c9c"/></g><path d="m116 300.256v-38.434h-31.234v38.434c0 4.547 3.686 8.232 8.232 8.232h31.234c-4.546 0-8.232-3.685-8.232-8.232z" fill="#838383"/><path d="m419.001 72.054h-60.895c6.977 14.681 10.887 31.103 10.887 48.44 0 62.405-50.589 112.994-112.994 112.994s-112.994-50.589-112.994-112.994c0-17.337 3.909-33.758 10.887-48.44h-60.893c-4.547 0-8.232 3.686-8.232 8.232v181.536h342.468v-181.536c-.001-4.546-3.687-8.232-8.234-8.232z" fill="#eaf6ff"/><g><path d="m124.232 72.054h-31.233c-4.547 0-8.232 3.686-8.232 8.232v181.536h31.233v-181.536c0-4.546 3.686-8.232 8.232-8.232z" fill="#d8ecfe"/></g><g><g><circle cx="256" cy="120.494" fill="#60b7ff" r="112.994"/></g><g><circle cx="256" cy="120.494" fill="#26a6fe" r="112.994"/></g><g><path d="m225.466 215.258c-30.97-20.15-51.453-55.061-51.453-94.764s20.483-74.614 51.453-94.764c8.785-11.527 19.271-18.23 30.534-18.23-62.405 0-112.994 50.589-112.994 112.994s50.589 112.993 112.994 112.993c-11.263 0-21.749-6.703-30.534-18.229z" fill="#0182fc"/></g><g><ellipse cx="256" cy="120.494" fill="#6cf5c2" rx="56.052" ry="112.994"/></g><g><path d="m231 120.494c0-51.545 17.122-95.026 40.526-108.598-4.931-2.86-10.139-4.396-15.526-4.396-30.957 0-56.052 50.589-56.052 112.994s25.095 112.993 56.052 112.993c5.387 0 10.595-1.536 15.526-4.395-23.404-13.573-40.526-57.053-40.526-108.598z" fill="#00f2a6"/></g></g><g><path d="m151.981 348.604v15.847c0 2.723 2.207 4.93 4.93 4.93h198.178c2.723 0 4.93-2.207 4.93-4.93v-15.847c0-2.723-2.207-4.93-4.93-4.93h-198.178c-2.723-.001-4.93 2.207-4.93 4.93z" fill="#9c9c9c"/></g><g><path d="m183 364.451v-15.847c0-2.723 2.207-4.93 4.93-4.93h-31.019c-2.723 0-4.93 2.207-4.93 4.93v15.847c0 2.723 2.207 4.93 4.93 4.93h31.019c-2.723 0-4.93-2.207-4.93-4.93z" fill="#838383"/></g></g></g><g><circle cx="256" cy="487.253" fill="#0593fc" r="17.247"/></g><g><circle cx="256" cy="415.241" fill="#6cf5c2" r="17.247"/></g><g><g><path d="m473.046 427.378h-50.584c-1.547 0-2.802-1.254-2.802-2.802v-39.212c0-1.547 1.254-2.802 2.802-2.802h50.584c1.547 0 2.802 1.254 2.802 2.802v39.212c-.001 1.547-1.255 2.802-2.802 2.802z" fill="#fed402"/></g><g><path d="m440 424.576v-39.212c0-1.547 1.254-2.802 2.802-2.802h-20.34c-1.547 0-2.802 1.254-2.802 2.802v39.212c0 1.547 1.254 2.802 2.802 2.802h20.34c-1.548 0-2.802-1.255-2.802-2.802z" fill="#fac600"/></g><g><circle cx="256" cy="283.485" r="7.5"/><path d="m473.046 434.878c5.681 0 10.302-4.621 10.302-10.302v-39.212c0-5.42-4.21-9.866-9.53-10.263v-7.864c0-14.371-11.692-26.063-26.063-26.063-14.372 0-26.064 11.692-26.064 26.063v7.864c-5.32.398-9.529 4.843-9.529 10.263v10.244h-48.505c-6.24 0-11.317 5.077-11.317 11.317v57.399h-1.199c-6.24 0-11.317 5.077-11.317 11.317v4.11h-60.239c-2.43-7.623-8.459-13.651-16.082-16.081v-24.848c9.99-3.185 17.247-12.55 17.247-23.582s-7.257-20.397-17.247-23.581v-14.779h33.497c4.143 0 7.5-3.357 7.5-7.5s-3.357-7.5-7.5-7.5h-137.52v-10.707h193.04v10.707h-19.52c-4.143 0-7.5 3.357-7.5 7.5s3.357 7.5 7.5 7.5h22.089c6.854 0 12.431-5.576 12.431-12.431v-15.847c0-6.854-5.576-12.43-12.431-12.43h-49.146v-20.186h113.06c8.675 0 15.732-7.058 15.732-15.732v-146.254c0-4.143-3.357-7.5-7.5-7.5s-7.5 3.357-7.5 7.5v100.322h-327.469v-174.036c0-.404.328-.732.732-.732h49.674c-4.634 12.787-7.165 26.573-7.165 40.939 0 66.44 54.053 120.494 120.493 120.494s120.493-54.054 120.493-120.494c0-14.367-2.532-28.152-7.166-40.939h49.674c.404 0 .732.328.732.732v37.714c0 4.143 3.357 7.5 7.5 7.5s7.5-3.357 7.5-7.5v-37.714c0-8.675-7.058-15.732-15.732-15.732h-56.308c-20.185-38.345-60.433-64.554-106.693-64.554s-86.508 26.209-106.694 64.554h-56.308c-8.675 0-15.732 7.058-15.732 15.732v219.97c0 8.675 7.058 15.732 15.732 15.732h113.06v20.186h-49.146c-6.854 0-12.431 5.576-12.431 12.43v15.847c0 6.854 5.576 12.431 12.431 12.431h91.588v14.779c-9.99 3.184-17.247 12.549-17.247 23.581s7.257 20.398 17.247 23.582v24.848c-7.623 2.43-13.652 8.459-16.082 16.081h-60.239v-4.11c0-6.24-5.077-11.317-11.317-11.317h-1.199v-57.399c0-6.24-5.077-11.317-11.317-11.317h-13.346c-4.143 0-7.5 3.357-7.5 7.5s3.357 7.5 7.5 7.5h9.662v53.717h-88.492v-53.717h42.83c4.143 0 7.5-3.357 7.5-7.5s-3.357-7.5-7.5-7.5h-46.513c-6.24 0-11.317 5.077-11.317 11.317v57.399h-1.199c-6.241 0-11.318 5.077-11.318 11.317v21.634c0 6.24 5.077 11.317 11.318 11.317h120.891c6.24 0 11.317-5.077 11.317-11.317v-2.523h60.239c3.184 9.989 12.55 17.246 23.582 17.246s20.398-7.257 23.582-17.247h60.239v2.523c0 6.24 5.077 11.317 11.317 11.317h120.891c6.241 0 11.318-5.077 11.318-11.317v-21.634c0-6.24-5.077-11.317-11.318-11.317h-1.199v-29.447zm-180.276-215.506c9.717-12.873 17.363-30.82 21.956-51.982h35.751c-11.886 23.847-32.535 42.59-57.707 51.982zm63.79-66.982h-39.177c1.413-10.127 2.169-20.813 2.169-31.896s-.756-21.769-2.169-31.896h39.177c3.2 10.067 4.933 20.782 4.933 31.896 0 11.113-1.732 21.828-4.933 31.896zm-6.083-78.792h-35.751c-4.592-21.162-12.238-39.109-21.955-51.982 25.172 9.391 45.82 28.134 57.706 51.982zm-86.977-57.198c9.255 3.427 18.23 13.04 25.416 27.527 4.34 8.749 7.835 18.776 10.415 29.67h-35.831zm0 72.198h38.72c1.534 10.186 2.332 20.907 2.332 31.896s-.798 21.71-2.332 31.896h-38.72zm0 78.792h35.831c-2.58 10.894-6.075 20.921-10.415 29.67-7.186 14.487-16.161 24.101-25.416 27.527zm-112.993-46.897c0-11.113 1.732-21.828 4.933-31.896h39.177c-1.413 10.127-2.169 20.812-2.169 31.896s.756 21.77 2.169 31.896h-39.177c-3.201-10.067-4.933-20.782-4.933-31.896zm11.016 46.897h35.751c4.592 21.162 12.238 39.109 21.955 51.982-25.171-9.392-45.82-28.135-57.706-51.982zm86.977 57.197c-9.255-3.427-18.23-13.04-25.416-27.527-4.34-8.749-7.835-18.776-10.415-29.67h35.831zm0-72.197h-38.72c-1.534-10.186-2.332-20.907-2.332-31.896s.798-21.709 2.332-31.896h38.72zm0-135.99v57.197h-35.831c2.58-10.894 6.075-20.921 10.415-29.67 7.186-14.486 16.161-24.1 25.416-27.527zm-29.27 5.216c-9.717 12.873-17.363 30.82-21.955 51.982h-35.751c11.885-23.848 32.533-42.591 57.706-51.982zm-126.964 278.64v-30.934h327.469v30.934c0 .404-.328.732-.732.732h-326.005c-.404 0-.732-.328-.732-.732zm128.792 15.732h69.885v20.186h-69.885zm-63.879 177.606h-113.527v-14.269h113.526v14.269zm98.821-88.099c5.375 0 9.747 4.372 9.747 9.746 0 5.375-4.372 9.747-9.747 9.747s-9.747-4.372-9.747-9.747c0-5.374 4.372-9.746 9.747-9.746zm0 91.505c-5.375 0-9.747-4.372-9.747-9.747 0-5.374 4.372-9.746 9.747-9.746s9.747 4.372 9.747 9.746c0 5.375-4.372 9.747-9.747 9.747zm171.16-106.937h41.188v29.815h-41.188zm20.594-33.889c6.101 0 11.063 4.963 11.063 11.063v7.825h-22.128v-7.825c0-6.1 4.964-11.063 11.065-11.063zm20.594 137.42h-113.527v-14.269h113.526v14.269zm-12.518-29.269h-88.492v-53.717h44.822v13.968c0 5.681 4.621 10.302 10.302 10.302h33.368z"/></g></g></g></svg>