<svg id="Capa_1" enable-background="new 0 0 512 512" height="512" viewBox="0 0 512 512" width="512" xmlns="http://www.w3.org/2000/svg"><g><path d="m500.049 285.235c.103-.244.194-.494.294-.739.044-.11.084-.212.128-.322 2.591-6.472 4.029-13.53 4.029-20.927 0-31.129-25.235-56.365-56.364-56.365s-56.365 25.235-56.365 56.365c0 7.398 1.44 14.455 4.03 20.927.044.11.083.212.127.322.1.245.191.495.294.739 11.109 27.877 10.816 31.226 4.32 56.888-1.075 4.046-1.656 8.294-1.656 12.679 0 27.199 22.049 41.108 49.249 41.108 27.199 0 49.249-13.909 49.249-41.108 0-4.385-.581-8.633-1.656-12.679-6.495-25.662-6.788-29.011 4.321-56.888z" fill="#01c0fa"/><path d="m504.5 263.247c0-31.129-25.235-56.365-56.364-56.365-4.025 0-7.948.43-11.734 1.232 25.496 5.4 44.631 28.028 44.631 55.133 0 7.398-1.44 14.455-4.03 20.927-.044.11-.083.212-.127.322-.1.245-.191.495-.294.739-11.109 27.877-10.816 31.226-4.32 56.888 1.075 4.046 1.656 8.294 1.656 12.679 0 23.154-15.983 36.67-37.515 40.18 3.762.613 7.689.928 11.734.928 27.199 0 49.249-13.909 49.249-41.108 0-4.385-.581-8.633-1.656-12.679-6.496-25.662-6.789-29.011 4.32-56.888.103-.244.194-.494.294-.739.044-.109.084-.212.128-.322 2.59-6.472 4.028-13.529 4.028-20.927z" fill="#0290cf"/><path d="m7.5 215.036v170.773c0 8.368 6.784 15.152 15.152 15.152h315.266c8.368 0 15.152-6.784 15.152-15.152v-170.773c0-8.368-6.784-15.152-15.152-15.152h-315.266c-8.368-.001-15.152 6.783-15.152 15.152z" fill="#01c0fa"/><path d="m337.918 199.883h-23.467c8.368 0 15.152 6.784 15.152 15.153v170.773c0 8.368-6.784 15.152-15.152 15.152h23.467c8.368 0 15.152-6.784 15.152-15.152v-170.773c.001-8.369-6.783-15.153-15.152-15.153z" fill="#0290cf"/><path d="m448.136 268.812c-6.119 0-11.08-4.961-11.08-11.08v-13.568c0-6.119 4.961-11.08 11.08-11.08s11.08 4.961 11.08 11.08v13.568c0 6.12-4.961 11.08-11.08 11.08z" fill="#fedf30"/><g fill="#f8f6f6"><path d="m33.727 270.23v30.634c0 2.789 2.261 5.051 5.051 5.051h30.634c2.789 0 5.051-2.261 5.051-5.051v-30.634c0-2.789-2.261-5.051-5.051-5.051h-30.634c-2.79 0-5.051 2.261-5.051 5.051z"/><path d="m117.854 270.23v30.634c0 2.789 2.261 5.051 5.051 5.051h30.634c2.789 0 5.051-2.261 5.051-5.051v-30.634c0-2.789-2.261-5.051-5.051-5.051h-30.634c-2.79 0-5.051 2.261-5.051 5.051z"/><path d="m201.981 270.23v30.634c0 2.789 2.261 5.051 5.051 5.051h30.634c2.789 0 5.051-2.261 5.051-5.051v-30.634c0-2.789-2.261-5.051-5.051-5.051h-30.634c-2.79 0-5.051 2.261-5.051 5.051z"/><path d="m286.108 270.23v30.634c0 2.789 2.261 5.051 5.051 5.051h30.634c2.789 0 5.051-2.261 5.051-5.051v-30.634c0-2.789-2.261-5.051-5.051-5.051h-30.634c-2.79 0-5.051 2.261-5.051 5.051z"/><path d="m33.727 340.633v30.634c0 2.789 2.261 5.051 5.051 5.051h30.634c2.789 0 5.051-2.261 5.051-5.051v-30.634c0-2.789-2.261-5.051-5.051-5.051h-30.634c-2.79.001-5.051 2.262-5.051 5.051z"/><path d="m237.666 335.583h-114.761c-2.789 0-5.051 2.261-5.051 5.051v30.634c0 2.789 2.261 5.051 5.051 5.051h114.761c2.789 0 5.051-2.261 5.051-5.051v-30.634c0-2.79-2.262-5.051-5.051-5.051z"/><path d="m286.108 340.633v30.634c0 2.789 2.261 5.051 5.051 5.051h30.634c2.789 0 5.051-2.261 5.051-5.051v-30.634c0-2.789-2.261-5.051-5.051-5.051h-30.634c-2.79.001-5.051 2.262-5.051 5.051z"/></g><path d="m161.33 175.791v24.092h37.911v-24.092c0-5.579-4.523-10.102-10.102-10.102h-17.707c-5.579.001-10.102 4.523-10.102 10.102z" fill="#fe9738"/><g><path d="m455.636 199.837v-88.798c0-4.142-3.358-7.5-7.5-7.5s-7.5 3.358-7.5 7.5v88.794c-5.237.612-10.362 1.853-15.302 3.742-3.869 1.479-5.807 5.814-4.327 9.684 1.479 3.869 5.813 5.808 9.684 4.327 5.561-2.125 11.43-3.204 17.445-3.204 26.944 0 48.864 21.92 48.864 48.865 0 6.246-1.175 12.35-3.497 18.152l-.362.915c-.021.048-.04.096-.06.145-11.661 29.262-11.476 34.434-4.602 61.59.932 3.506 1.404 7.125 1.404 10.753 0 24.779-21.566 33.608-41.749 33.608s-41.749-8.829-41.749-33.608c0-3.628.473-7.247 1.426-10.839 6.852-27.07 7.038-32.243-4.623-61.504-.021-.051-.043-.106-.064-.156l-.361-.916c-2.318-5.791-3.493-11.894-3.493-18.14 0-10.82 3.463-21.07 10.014-29.642 2.515-3.291 1.886-7.998-1.405-10.513-3.29-2.515-7.999-1.886-10.513 1.405-8.567 11.21-13.096 24.609-13.096 38.75 0 8.164 1.536 16.142 4.562 23.702l.107.27c.008.021.035.087.043.107l.078.198c.072.185.145.369.221.552 10.521 26.408 10.023 28.371 4.013 52.12-1.266 4.763-1.907 9.677-1.907 14.605 0 29.074 22.806 48.608 56.749 48.608s56.749-19.534 56.749-48.608c0-4.928-.642-9.842-1.885-14.52-6.033-23.837-6.531-25.799 3.993-52.211.075-.18.146-.361.217-.543l.224-.567c3.031-7.571 4.567-15.55 4.567-23.714-.001-32.676-24.674-59.682-56.365-63.409z"/><path d="m337.918 192.383h-131.177v-16.592c0-9.706-7.896-17.602-17.602-17.602h-1.355v-15.665c0-5.173 2.013-10.036 5.67-13.694s8.52-5.672 13.692-5.672h.695c11.208 0 20.326 9.058 20.326 20.191v2.849c0 21.386 17.399 38.785 38.785 38.785s38.785-17.399 38.785-38.785v-35.16c0-4.142-3.358-7.5-7.5-7.5s-7.5 3.358-7.5 7.5v35.16c0 13.115-10.67 23.785-23.785 23.785s-23.785-10.67-23.785-23.785v-2.849c0-19.404-15.847-35.191-35.326-35.191h-.695c-9.18 0-17.81 3.575-24.3 10.067-6.49 6.491-10.063 15.122-10.062 24.3v15.664h-1.352c-9.706 0-17.602 7.896-17.602 17.602v16.592h-69.735c-4.142 0-7.5 3.358-7.5 7.5s3.358 7.5 7.5 7.5h253.823c4.22 0 7.652 3.433 7.652 7.652v170.773c0 4.22-3.433 7.652-7.652 7.652h-315.266c-4.22 0-7.652-3.433-7.652-7.652v-170.772c0-4.22 3.433-7.652 7.652-7.652h31.443c4.142 0 7.5-3.358 7.5-7.5s-3.358-7.5-7.5-7.5h-31.443c-12.49-.001-22.652 10.161-22.652 22.652v170.773c0 12.491 10.162 22.652 22.652 22.652h315.266c12.491 0 22.652-10.162 22.652-22.652v-170.773c.001-12.491-10.161-22.653-22.652-22.653zm-169.088-16.591c0-1.435 1.167-2.602 2.602-2.602h17.708c1.435 0 2.602 1.167 2.602 2.602v16.592h-22.912z"/><path d="m448.136 317.132c4.142 0 7.5-3.358 7.5-7.5v-34.914c6.517-2.889 11.08-9.41 11.08-16.985v-13.568c0-10.245-8.335-18.58-18.58-18.58-10.246 0-18.581 8.335-18.581 18.58v13.568c0 7.576 4.563 14.096 11.081 16.985v34.914c0 4.142 3.358 7.5 7.5 7.5zm-3.581-72.967c0-1.974 1.606-3.58 3.581-3.58s3.58 1.606 3.58 3.58v13.568c0 1.974-1.606 3.58-3.58 3.58s-3.581-1.606-3.581-3.58z"/><path d="m81.962 270.23c0-6.92-5.63-12.551-12.551-12.551h-30.634c-6.92 0-12.551 5.63-12.551 12.551v30.634c0 6.92 5.63 12.551 12.551 12.551h30.634c6.92 0 12.551-5.63 12.551-12.551zm-15 28.185h-25.735v-25.736h25.736v25.736z"/><path d="m122.905 313.415h30.634c6.92 0 12.551-5.63 12.551-12.551v-30.634c0-6.92-5.63-12.551-12.551-12.551h-30.634c-6.92 0-12.551 5.63-12.551 12.551v30.634c0 6.921 5.63 12.551 12.551 12.551zm2.449-40.736h25.736v25.736h-25.736z"/><path d="m194.481 270.23v30.634c0 6.92 5.63 12.551 12.551 12.551h30.634c6.92 0 12.551-5.63 12.551-12.551v-30.634c0-6.92-5.63-12.551-12.551-12.551h-30.634c-6.921 0-12.551 5.631-12.551 12.551zm15 2.449h25.736v25.736h-25.736z"/><path d="m278.608 270.23v30.634c0 6.92 5.63 12.551 12.551 12.551h30.634c6.92 0 12.551-5.63 12.551-12.551v-30.634c0-6.92-5.63-12.551-12.551-12.551h-30.634c-6.921 0-12.551 5.631-12.551 12.551zm15 2.449h25.736v25.736h-25.736z"/><path d="m69.412 328.083h-30.635c-6.92 0-12.551 5.63-12.551 12.551v30.634c0 6.92 5.63 12.551 12.551 12.551h30.634c6.92 0 12.551-5.63 12.551-12.551v-30.634c0-6.921-5.63-12.551-12.55-12.551zm-2.45 40.735h-25.735v-25.736h25.736v25.736z"/><path d="m110.354 371.268c0 6.92 5.63 12.551 12.551 12.551h114.761c6.92 0 12.551-5.63 12.551-12.551v-30.634c0-6.92-5.63-12.551-12.551-12.551h-114.761c-6.92 0-12.551 5.63-12.551 12.551zm15-28.185h109.863v25.736h-109.863z"/><path d="m278.608 371.268c0 6.92 5.63 12.551 12.551 12.551h30.634c6.92 0 12.551-5.63 12.551-12.551v-30.634c0-6.92-5.63-12.551-12.551-12.551h-30.634c-6.92 0-12.551 5.63-12.551 12.551zm15-28.185h25.736v25.736h-25.736z"/><path d="m326.844 240.584c4.142 0 7.5-3.358 7.5-7.5s-3.358-7.5-7.5-7.5h-20.368c-4.142 0-7.5 3.358-7.5 7.5s3.358 7.5 7.5 7.5z"/><path d="m242.717 240.584c4.142 0 7.5-3.358 7.5-7.5s-3.358-7.5-7.5-7.5h-20.368c-4.142 0-7.5 3.358-7.5 7.5s3.358 7.5 7.5 7.5z"/></g></g></svg>